#!OML:ASF F:\VICON\USERDATA\INSTALL\rory3\rory3.ASF
:FULLY-SPECIFIED
:DEGREES
524
root 2.58223 9.66745 -5.46961 -16.6377 -4.75668 1.71458
lowerback 28.9492 0.275291 -0.168391
upperback 12.3742 0.309904 1.21436
thorax -2.06523 0.0848674 1.33662
lowerneck -25.011 -1.61172 -11.6328
upperneck 12.4394 0.92051 4.56769
head 7.81072 0.336911 3.52845
rclavicle 6.55989e-015 2.38542e-015
rhumerus -11.9532 20.1932 -83.249
rradius 93.2857
rwrist 29.9737
rhand -32.6085 12.1641
rfingers 7.12502
rthumb -5.83621 -17.7356
lclavicle 6.55989e-015 2.38542e-015
lhumerus -10.2535 -16.2489 89.3761
lradius 86.1953
lwrist -20.2439
lhand -28.9778 18.2434
lfingers 7.12502
lthumb -2.33028 48.2104
rfemur -79.4239 -10.8188 22.052
rtibia 107.638
rfoot -5.83276 2.90697
rtoes 7.55273
lfemur -78.9832 12.4022 -24.8553
ltibia 103.32
lfoot -6.32761 -10.7486
ltoes -5.06035
525
root 2.58142 9.66556 -5.46789 -16.6195 -4.80079 1.67506
lowerback 28.9116 0.27676 -0.137382
upperback 12.4152 0.318783 1.22064
thorax -2.00203 0.0895492 1.32304
lowerneck -25.1301 -1.60964 -11.6367
upperneck 12.4707 0.932429 4.60916
head 7.83887 0.346704 3.54666
rclavicle -1.94809e-014 -1.11319e-014
rhumerus -11.8414 20.1968 -83.2412
rradius 93.249
rwrist 30.001
rhand -32.6094 12.3006
rfingers 7.12502
rthumb -5.83715 -17.599
lclavicle -1.94809e-014 -1.11319e-014
lhumerus -10.1681 -16.2635 89.3256
lradius 86.1675
lwrist -20.2397
lhand -29.0184 18.256
lfingers 7.12502
lthumb -2.36946 48.2225
rfemur -79.4343 -10.7556 22.1127
rtibia 107.639
rfoot -5.83787 2.89889
rtoes 7.59434
lfemur -79.0289 12.4572 -24.8008
ltibia 103.35
lfoot -6.29969 -10.7715
ltoes -4.87027
526
root 2.58033 9.66477 -5.46813 -16.6202 -4.75607 1.75228
lowerback 28.931 0.281102 -0.240888
upperback 12.4357 0.297445 1.21395
thorax -1.98741 0.0752285 1.38144
lowerneck -25.1724 -1.61543 -11.6705
upperneck 12.4391 0.937419 4.63189
head 7.83416 0.351103 3.56031
rclavicle 4.37326e-015 1.27222e-014
rhumerus -11.7439 20.2032 -83.2368
rradius 93.2031
rwrist 30.0457
rhand -32.6617 12.3566
rfingers 7.12502
rthumb -5.88764 -17.5416
lclavicle 4.37326e-015 1.27222e-014
lhumerus -10.1388 -16.2764 89.3025
lradius 86.2051
lwrist -20.2513
lhand -29.1013 18.3652
lfingers 7.12502
lthumb -2.44957 48.3308
rfemur -79.4507 -10.7793 22.0178
rtibia 107.649
rfoot -5.80679 2.91813
rtoes 7.84409
lfemur -79.0194 12.4252 -24.9013
ltibia 103.35
lfoot -6.34602 -10.7506
ltoes -5.12905
527
root 2.57938 9.6648 -5.4694 -16.6353 -4.74574 1.72358
lowerback 29.0035 0.270561 -0.220333
upperback 12.4441 0.290084 1.2274
thorax -2.01042 0.0718531 1.38676
lowerneck -25.319 -1.63701 -11.7076
upperneck 12.5219 0.933647 4.66722
head 7.88554 0.349673 3.58083
rclavicle 4.57205e-015 2.3059e-014
rhumerus -11.6915 20.1803 -83.2577
rradius 93.1743
rwrist 30.0335
rhand -32.7106 12.3595
rfingers 7.12502
rthumb -5.93478 -17.5374
lclavicle 4.57205e-015 2.3059e-014
lhumerus -10.1087 -16.3294 89.2627
lradius 86.2137
lwrist -20.243
lhand -29.1941 18.3924
lfingers 7.12502
lthumb -2.53921 48.3571
rfemur -79.4327 -10.77 22.0428
rtibia 107.65
rfoot -5.82815 2.84205
rtoes 7.75791
lfemur -79.0053 12.423 -24.8584
ltibia 103.339
lfoot -6.30941 -10.786
ltoes -4.86675
528
root 2.57923 9.66565 -5.46971 -16.6011 -4.7602 1.65265
lowerback 28.979 0.259466 -0.158236
upperback 12.4489 0.293743 1.26697
thorax -1.99395 0.0745348 1.3934
lowerneck -25.4252 -1.65329 -11.7469
upperneck 12.6497 0.93641 4.68189
head 7.94547 0.347278 3.59588
rclavicle -1.15295e-014 7.15625e-015
rhumerus -11.6699 20.1802 -83.2293
rradius 93.1778
rwrist 29.9534
rhand -32.692 12.2359
rfingers 7.12502
rthumb -5.91689 -17.6615
lclavicle -1.15295e-014 7.15625e-015
lhumerus -10.0753 -16.3397 89.2521
lradius 86.2279
lwrist -20.2081
lhand -29.216 18.3178
lfingers 7.12502
lthumb -2.56034 48.2822
rfemur -79.4479 -10.7416 22.1173
rtibia 107.655
rfoot -5.84341 2.79356
rtoes 7.9157
lfemur -79.0521 12.4327 -24.7857
ltibia 103.335
lfoot -6.30646 -10.8068
ltoes -4.9392
529
root 2.57909 9.66827 -5.47124 -16.5829 -4.755 1.717
lowerback 28.9181 0.27578 -0.2108
upperback 12.4847 0.299225 1.24548
thorax -1.92612 0.0756454 1.39822
lowerneck -25.4809 -1.65574 -11.6665
upperneck 12.6596 0.925708 4.61225
head 7.95938 0.338795 3.55831
rclavicle 2.5842e-015 -1.98785e-014
rhumerus -11.6023 20.1152 -83.2425
rradius 93.183
rwrist 29.9145
rhand -32.6461 12.2904
rfingers 7.12502
rthumb -5.87255 -17.6082
lclavicle 2.5842e-015 -1.98785e-014
lhumerus -10.0358 -16.3677 89.2167
lradius 86.2431
lwrist -20.1852
lhand -29.2903 18.2567
lfingers 7.12502
lthumb -2.63208 48.2202
rfemur -79.4635 -10.7446 22.0522
rtibia 107.655
rfoot -5.83192 2.85369
rtoes 7.7679
lfemur -79.0406 12.4274 -24.8565
ltibia 103.307
lfoot -6.33237 -10.7689
ltoes -5.14282
530
root 2.58023 9.6706 -5.47203 -16.5945 -4.73753 1.80577
lowerback 28.8775 0.266617 -0.264845
upperback 12.5107 0.271072 1.20134
thorax -1.87771 0.0608207 1.38897
lowerneck -25.4061 -1.63931 -11.6879
upperneck 12.5555 0.936794 4.65822
head 7.91063 0.350754 3.57646
rclavicle -1.05356e-014 -1.82882e-014
rhumerus -11.5937 20.1068 -83.2878
rradius 93.1893
rwrist 29.8987
rhand -32.7363 12.3888
rfingers 7.12502
rthumb -5.95963 -17.5073
lclavicle -1.05356e-014 -1.82882e-014
lhumerus -10.0229 -16.3509 89.1514
lradius 86.2403
lwrist -20.2447
lhand -29.2751 18.1705
lfingers 7.12502
lthumb -2.61736 48.1342
rfemur -79.4412 -10.7731 21.9368
rtibia 107.657
rfoot -5.83708 2.90986
rtoes 8.23677
lfemur -78.9897 12.4053 -24.9544
ltibia 103.284
lfoot -6.36863 -10.7314
ltoes -5.28731
531
root 2.57996 9.66682 -5.46855 -16.5371 -4.72869 1.87749
lowerback 28.8248 0.268449 -0.315741
upperback 12.4806 0.259261 1.16939
thorax -1.88757 0.0544439 1.38644
lowerneck -25.4485 -1.62276 -11.5966
upperneck 12.6638 0.95083 4.56374
head 7.95405 0.348662 3.53359
rclavicle 4.57205e-015 -8.74653e-015
rhumerus -11.6218 20.0683 -83.3734
rradius 93.1877
rwrist 29.8411
rhand -32.7116 12.4386
rfingers 7.12502
rthumb -5.93575 -17.4582
lclavicle 4.57205e-015 -8.74653e-015
lhumerus -10.0602 -16.3915 89.0964
lradius 86.2353
lwrist -20.2215
lhand -29.2987 18.292
lfingers 7.12502
lthumb -2.64022 48.2554
rfemur -79.5619 -10.7659 21.8765
rtibia 107.694
rfoot -5.85422 2.8682
rtoes 8.00117
lfemur -79.0851 12.4229 -25.0628
ltibia 103.303
lfoot -6.35952 -10.753
ltoes -5.16749
532
root 2.58137 9.66461 -5.46584 -16.4822 -4.74182 1.85922
lowerback 28.7622 0.250628 -0.272562
upperback 12.4684 0.247338 1.16447
thorax -1.87259 0.0503569 1.35958
lowerneck -25.476 -1.61535 -11.5362
upperneck 12.7541 0.958161 4.48636
head 7.98942 0.344104 3.50012
rclavicle 1.45113e-014 -4.77083e-015
rhumerus -11.6155 20.0551 -83.4355
rradius 93.1762
rwrist 29.8334
rhand -32.6576 12.3786
rfingers 7.12502
rthumb -5.88367 -17.5197
lclavicle 1.45113e-014 -4.77083e-015
lhumerus -10.0714 -16.4206 89.0389
lradius 86.2383
lwrist -20.2424
lhand -29.3491 18.3556
lfingers 7.12502
lthumb -2.68887 48.3184
rfemur -79.6348 -10.7387 21.8937
rtibia 107.71
rfoot -5.892 2.89128
rtoes 7.40564
lfemur -79.1755 12.44 -25.0687
ltibia 103.33
lfoot -6.35114 -10.7812
ltoes -5.12808
533
root 2.58186 9.66705 -5.46578 -16.5643 -4.76728 1.83789
lowerback 28.8531 0.251244 -0.252963
upperback 12.4828 0.254551 1.20166
thorax -1.89765 0.0532058 1.38727
lowerneck -25.4239 -1.63256 -11.5644
upperneck 12.7321 0.946819 4.43947
head 7.97491 0.332458 3.48585
rclavicle -1.64991e-014 2.46493e-014
rhumerus -11.6767 20.0388 -83.4325
rradius 93.2186
rwrist 29.8064
rhand -32.643 12.4327
rfingers 7.12502
rthumb -5.86958 -17.466
lclavicle -1.64991e-014 2.46493e-014
lhumerus -10.0492 -16.4584 89.0306
lradius 86.2332
lwrist -20.2325
lhand -29.4194 18.5705
lfingers 7.12502
lthumb -2.75679 48.5325
rfemur -79.4989 -10.6892 21.8863
rtibia 107.706
rfoot -5.93656 2.88889
rtoes 7.53417
lfemur -79.0622 12.4897 -25.0247
ltibia 103.333
lfoot -6.3997 -10.8071
ltoes -5.21371
534
root 2.58222 9.66785 -5.46609 -16.5873 -4.7731 1.79324
lowerback 28.8974 0.236059 -0.205932
upperback 12.486 0.248346 1.22417
thorax -1.91387 0.0510916 1.38693
lowerneck -25.4063 -1.61318 -11.5508
upperneck 12.7181 0.971593 4.4096
head 7.96555 0.341971 3.47624
rclavicle -3.18055e-015 -1.27222e-014
rhumerus -11.7525 20.0263 -83.4567
rradius 93.3003
rwrist 29.6777
rhand -32.645 12.5508
rfingers 7.12502
rthumb -5.87149 -17.3479
lclavicle -3.18055e-015 -1.27222e-014
lhumerus -10.0412 -16.4589 89.0301
lradius 86.2089
lwrist -20.2599
lhand -29.5654 18.6042
lfingers 7.12502
lthumb -2.89777 48.5642
rfemur -79.4491 -10.6783 21.9224
rtibia 107.692
rfoot -5.90745 2.86122
rtoes 7.54525
lfemur -79.0645 12.504 -24.9728
ltibia 103.359
lfoot -6.38313 -10.8181
ltoes -5.10477
535
root 2.58241 9.66565 -5.46401 -16.5751 -4.73289 1.74234
lowerback 28.9174 0.211991 -0.132492
upperback 12.4769 0.238559 1.24866
thorax -1.93285 0.048536 1.37458
lowerneck -25.385 -1.60775 -11.5705
upperneck 12.7078 0.980156 4.42435
head 7.95773 0.346833 3.48521
rclavicle -7.7526e-015 -1.43125e-014
rhumerus -11.79 19.9721 -83.4575
rradius 93.3384
rwrist 29.5399
rhand -32.5248 12.5698
rfingers 7.12502
rthumb -5.7554 -17.332
lclavicle -7.7526e-015 -1.43125e-014
lhumerus -10.0679 -16.4913 89.0529
lradius 86.1909
lwrist -20.2689
lhand -29.6308 18.5324
lfingers 7.12502
lthumb -2.9609 48.4916
rfemur -79.4735 -10.7543 21.9743
rtibia 107.706
rfoot -5.86747 2.86594
rtoes 7.93322
lfemur -79.1107 12.4988 -24.9712
ltibia 103.396
lfoot -6.36237 -10.8212
ltoes -5.06135
